<svg version="1.1" id="Layer_1" xmlns="http://www.w3.org/2000/svg" xmlns:xlink="http://www.w3.org/1999/xlink" x="0px" y="0px" width="100%" viewBox="0 0 976 976" enable-background="new 0 0 976 976" xml:space="preserve">
<path fill="#00008B" opacity="1.000000" stroke="none" d=" M479.000000,1.000000   C486.354248,1.000000 493.708496,1.000000 501.870880,1.148914   C525.545715,5.911207 542.681274,18.210136 552.697815,39.478481   C577.672119,92.507004 602.447327,145.629318 627.301758,198.714264   C639.092773,223.897873 650.901978,249.072998 662.655334,274.274170   C664.901733,279.090820 668.133301,282.670959 673.593750,283.521393   C693.288635,286.588684 712.991272,289.606873 732.697876,292.598328   C766.363098,297.708740 800.038391,302.753387 833.700317,307.885254   C861.447693,312.115417 889.172058,316.497375 916.926270,320.681854   C930.415771,322.715637 943.190002,326.291626 954.370300,334.648407   C964.706604,342.374237 971.530151,352.619476 977.000000,364.000000   C977.000000,380.687561 977.000000,397.375122 976.817078,414.820068   C972.386658,425.135498 966.242981,433.323273 958.955444,440.788910   C924.511597,476.074280 890.140076,511.430237 855.761536,546.779297   C830.442932,572.812683 805.179504,598.899780 779.821777,624.895020   C776.068359,628.742676 774.198120,632.877319 775.192505,638.364807   C776.523071,645.707214 777.392151,653.131836 778.597534,660.498596   C785.138184,700.471558 791.774536,740.428955 798.274963,780.408508   C804.802856,820.557373 811.003296,860.760559 817.738281,900.874329   C822.741943,930.676270 808.424438,960.241333 781.592590,974.102112   C779.981750,974.934204 778.147949,975.428406 777.000000,977.000000   C759.979126,977.000000 742.958191,977.000000 725.211548,976.776733   C721.666443,975.127197 718.796997,973.791443 716.035034,972.261536   C644.229675,932.487549 572.400757,892.755676 500.694763,852.803162   C493.783417,848.952332 488.009918,848.977539 481.143311,852.869141   C453.043884,868.794373 424.733612,884.348450 396.467377,899.978271   C349.991943,925.677002 303.490479,951.328613 257.000000,977.000000   C240.645767,977.000000 224.291550,977.000000 207.197327,976.786133   C206.169830,976.403748 205.896011,976.204041 205.592850,976.071289   C175.904404,963.074097 159.582428,935.736267 163.865524,903.846497   C167.556320,876.366760 172.565887,849.063599 177.035080,821.689270   C181.530670,794.153503 186.093506,766.628784 190.600296,739.094849   C195.858566,706.969727 200.955902,674.817383 206.426559,642.728577   C207.731918,635.071838 206.512817,629.154724 200.814178,623.319031   C141.202332,562.273315 81.847000,500.977173 22.335032,439.833740   C13.569462,430.827881 6.750059,420.788879 3.244423,408.640137   C2.508528,406.089874 1.748771,403.546539 1.000002,401.000000   C1.000000,393.312408 1.000000,385.624847 1.126112,377.129272   C1.703082,375.079651 2.236343,373.861176 2.592654,372.592957   C10.051967,346.042969 27.052095,329.053131 53.908588,322.770081   C66.007469,319.939545 78.460144,318.591675 90.774704,316.718384   C124.442238,311.596863 158.130493,306.611359 191.794052,301.464172   C230.216461,295.589294 268.615784,289.563385 307.039459,283.696991   C312.423370,282.875000 316.369781,280.407379 318.720825,275.481903   C321.734741,269.167633 324.770355,262.863403 327.734985,256.526001   C361.545715,184.249847 395.317139,111.955276 429.168365,39.698090   C436.618225,23.795946 448.462463,12.279094 464.786011,5.637929   C469.390778,3.764499 474.254852,2.528409 479.000000,1.000000  M367.792053,302.124695   C358.517639,319.719879 344.281158,331.277008 325.168945,336.625854   C319.750153,338.142395 314.102753,338.901917 308.523682,339.775299   C283.729828,343.656708 258.926880,347.480743 234.119278,351.273376   C206.682434,355.468018 179.233444,359.583313 151.796143,363.774902   C124.521606,367.941620 97.264900,372.226410 69.977287,376.305023   C63.917210,377.210785 59.040909,379.426941 56.940426,385.537750   C54.959133,391.301758 57.350357,395.830200 61.344131,399.933960   C108.184845,448.065247 154.994461,496.226837 201.802979,544.389404   C215.972839,558.969238 230.304550,573.398071 244.214737,588.222046   C258.022034,602.936340 264.087463,620.545715 262.466522,640.784302   C261.748108,649.754822 259.905640,658.527100 258.473999,667.376282   C251.654343,709.528992 244.896622,751.691772 238.086945,793.846069   C231.781799,832.877136 225.471695,871.907471 219.073151,910.923279   C218.215668,916.151978 220.104233,920.008118 224.029282,923.108215   C227.937180,926.194763 232.260132,926.472412 236.729355,924.508057   C238.707230,923.638733 240.593552,922.551880 242.487732,921.502869   C312.888611,882.512939 383.381073,843.686951 453.631805,804.428284   C478.507904,790.526550 502.756195,790.108643 527.627930,804.038086   C566.004456,825.531006 604.574890,846.677429 643.045959,868.001709   C676.125000,886.337280 709.192261,904.694153 742.232727,923.098999   C747.233276,925.884399 752.169617,927.014038 757.268982,923.624146   C762.303589,920.277283 763.675598,915.495605 762.732056,909.683655   C759.218872,888.044312 755.850098,866.381531 752.343262,844.741150   C747.480530,814.733765 742.533325,784.740051 737.638489,754.737854   C732.744019,724.737366 727.825134,694.740601 723.010681,664.727234   C721.380432,654.564392 718.812012,644.457092 719.133667,634.106323   C719.734802,614.764954 727.411499,598.600586 740.994263,584.695862   C800.850830,523.420410 860.447998,461.891571 920.192749,400.506714   C924.449585,396.133057 927.144531,391.393433 925.031250,385.285583   C922.914978,379.169189 917.819092,377.052856 911.801880,376.285950   C904.388733,375.341125 897.002869,374.172607 889.616455,373.028137   C864.656738,369.160706 839.706299,365.232605 814.744080,361.381470   C787.315369,357.149811 759.878540,352.971771 732.443481,348.781494   C711.745422,345.620209 691.087646,342.151733 670.334473,339.405701   C643.454895,335.848999 623.743958,322.696289 612.165100,297.912537   C602.224243,276.634766 592.282104,255.357681 582.337769,234.081558   C561.744019,190.020386 541.155090,145.957001 520.549500,101.901375   C514.621521,89.227112 508.685211,76.556419 502.667358,63.924755   C500.322571,59.003014 496.475891,56.239544 490.803375,56.319134   C485.341827,56.395763 481.750671,59.174976 479.429504,63.886536   C478.325714,66.127060 477.301575,68.406853 476.242065,70.669182   C440.211487,147.603867 404.181030,224.538605 367.792053,302.124695  z"/>
</svg>
