<svg version="1.1" id="Layer_1" xmlns="http://www.w3.org/2000/svg" xmlns:xlink="http://www.w3.org/1999/xlink" x="0px" y="0px" width="100%" viewBox="0 0 980 980" enable-background="new 0 0 980 980" xml:space="preserve">
<path fill="#00008B" opacity="1.000000" stroke="none" d=" M1.000000,400.000000   C1.000000,393.645599 1.000000,387.291199 1.346529,380.280975   C2.140597,377.359283 2.422379,375.045532 3.061484,372.835022   C9.044223,352.142578 20.985872,336.817108 41.138561,327.679077   C51.376507,323.036804 62.047085,321.821259 72.701187,320.108643   C99.945595,315.729218 127.280945,311.918060 154.568375,307.803009   C178.540237,304.187988 202.497589,300.476654 226.459244,296.794098   C252.303970,292.822113 278.121643,288.662598 304.003510,284.950134   C312.548645,283.724426 317.695160,279.843170 321.398224,271.763123   C342.007660,226.793594 363.153473,182.069901 384.118866,137.263550   C399.058746,105.334679 414.033569,73.422104 428.933716,41.474701   C436.724487,24.770546 448.775391,12.488722 466.057343,5.767819   C471.210297,3.763857 476.677032,2.566778 482.000000,0.999999   C487.688049,1.000000 493.376068,1.000000 499.730835,1.345564   C505.818390,3.403793 511.217529,5.189219 516.664368,6.814744   C530.092529,10.822200 539.851624,19.667673 547.125427,31.105579   C551.803955,38.462593 555.327942,46.583179 559.061951,54.506424   C574.135315,86.491058 589.115234,118.519775 604.077271,150.556717   C613.018555,169.701889 621.835022,188.905304 630.757629,208.059265   C640.527466,229.031784 650.360107,249.975052 660.154419,270.936218   C663.413696,277.911377 667.061035,284.037354 676.186340,284.459381   C682.582825,284.755219 688.937317,286.183563 695.285767,287.253204   C714.286011,290.454590 733.250977,293.872070 752.276184,296.914978   C762.253113,298.510712 772.344360,299.377930 782.352783,300.794891   C793.102539,302.316895 803.812988,304.114716 814.545715,305.759125   C820.939758,306.738800 827.362000,307.546143 833.738831,308.624420   C843.809692,310.327393 853.824707,312.376495 863.916199,313.937225   C873.695007,315.449585 883.574707,316.313965 893.347717,317.857758   C904.732056,319.656036 915.981079,322.550964 927.416565,323.707001   C936.163879,324.591309 943.362000,328.440216 950.324280,332.796753   C964.903198,341.919342 973.979004,355.364777 978.669556,371.822937   C979.534302,374.856903 980.227539,377.939728 981.000000,381.000000   C981.000000,386.688049 981.000000,392.376068 980.691895,398.673218   C979.040649,404.180176 977.986511,409.180420 976.295471,413.955109   C972.496704,424.681152 965.403870,433.172607 957.552429,441.229004   C898.239807,502.089966 839.049194,563.069824 779.710632,623.905396   C775.376038,628.349304 773.561218,633.284973 774.147827,639.188599   C774.436523,642.094177 775.582092,644.905640 776.005554,647.808411   C777.146118,655.627502 777.938354,663.499695 779.181763,671.300964   C780.732483,681.030090 782.686401,690.694397 784.298279,700.414612   C785.746704,709.148987 786.845032,717.941711 788.317078,726.671753   C790.793152,741.357483 793.597046,755.989014 795.975037,770.689880   C798.213318,784.526611 799.906982,798.451660 802.156372,812.286377   C804.585632,827.227417 807.505066,842.088440 809.973328,857.023560   C811.585205,866.777344 812.372742,876.678833 814.249268,886.374817   C816.910522,900.124878 819.651672,913.714050 816.407410,927.803406   C811.311523,949.933960 798.373657,965.617310 777.904602,974.960815   C771.929260,977.688477 765.319153,979.025513 759.000000,981.000000   C752.978821,981.000000 746.957703,981.000000 740.327026,980.638550   C731.089417,977.003113 721.922729,974.707764 713.917358,970.302124   C642.240112,930.854431 570.759460,891.049194 499.249786,851.297485   C493.645264,848.181946 488.422607,848.152588 482.768463,851.319824   C458.814667,864.738342 434.752594,877.963379 410.743805,891.283875   C385.236908,905.435608 359.753571,919.629822 334.244751,933.778137   C313.722900,945.160461 293.229889,956.596558 272.614136,967.806641   C265.975342,971.416504 259.122437,974.723267 252.108994,977.520569   C247.652359,979.298035 242.719376,979.881226 238.000000,981.000000   C233.975449,981.000000 229.950912,981.000000 225.255066,980.658569   C219.751617,979.236084 214.818542,978.480835 210.104065,977.020020   C183.999161,968.931396 163.582413,943.914917 164.147369,915.008850   C164.422653,900.923462 166.951523,886.832886 169.108139,872.844543   C172.820847,848.762756 177.082550,824.766052 181.035172,800.720703   C185.106552,775.953064 189.058395,751.165771 193.109421,726.394714   C197.643600,698.669312 201.989349,670.909302 206.933502,643.256714   C208.525024,634.355286 206.340103,627.985596 199.984924,621.490662   C140.574982,560.773682 81.339333,499.884613 22.393167,438.717773   C15.840702,431.918488 10.971815,423.332489 6.158494,415.086884   C3.531950,410.587402 2.662095,405.062469 1.000000,400.000000  z"/>
</svg>
